HIERARCHY
ROOT hip
{
	OFFSET 0.000000 0.000000 0.000000 
	CHANNELS 6 Xposition Yposition Zposition Xrotation Zrotation Yrotation
	JOINT abdomen
	{
		OFFSET 0.000000 3.402643 0.000000 
		CHANNELS 3 Xrotation Zrotation Yrotation
		JOINT chest
		{
			OFFSET 0.000000 8.438565 -0.680529 
			CHANNELS 3 Xrotation Zrotation Yrotation
			JOINT neck
			{
				OFFSET 0.000000 10.207942 -0.272212 
				CHANNELS 3 Xrotation Zrotation Yrotation
				JOINT head
				{
					OFFSET 0.000000 3.130431 0.000000 
					CHANNELS 3 Xrotation Zrotation Yrotation
					End Site
					{
						OFFSET 0.000000 3.130435 0.000000 
					}
				}
			}
			JOINT lCollar
			{
				OFFSET 3.470700 6.669187 -0.816635 
				CHANNELS 3 Yrotation Zrotation Xrotation
				JOINT lShldr
				{
					OFFSET 3.198488 0.000000 0.000000 
					CHANNELS 3 Zrotation Yrotation Xrotation
					JOINT lForeArm
					{
						OFFSET 10.139888 0.000000 0.000000 
						CHANNELS 3 Yrotation Zrotation Xrotation
						JOINT lHand
						{
							OFFSET 8.370511 0.000000 0.000000 
							CHANNELS 3 Zrotation Yrotation Xrotation
							End Site
							{
								OFFSET 4.083176 0.000000 0.000000 
							}
						}
					}
				}
			}
			JOINT rCollar
			{
				OFFSET -3.470700 6.669187 -0.816635 
				CHANNELS 3 Yrotation Zrotation Xrotation
				JOINT rShldr
				{
					OFFSET -3.198488 0.000000 0.000000 
					CHANNELS 3 Zrotation Yrotation Xrotation
					JOINT rForeArm
					{
						OFFSET -10.139888 0.000000 0.000000 
						CHANNELS 3 Yrotation Zrotation Xrotation
						JOINT rHand
						{
							OFFSET -8.370511 0.000000 0.000000 
							CHANNELS 3 Zrotation Yrotation Xrotation
							End Site
							{
								OFFSET -4.083176 0.000000 0.000000 
							}
						}
					}
				}
			}
		}
	}
	JOINT lThigh
	{
		OFFSET 5.308129 -1.633274 1.361059 
		CHANNELS 3 Xrotation Zrotation Yrotation
		JOINT lShin
		{
			OFFSET -2.041588 -20.007561 0.000000 
			CHANNELS 3 Xrotation Zrotation Yrotation
			JOINT lFoot
			{
				OFFSET 0.000000 -19.190928 -1.224953 
				CHANNELS 3 Xrotation Yrotation Zrotation
				End Site
				{
					OFFSET 0.000000 -2.449906 4.627600 
				}
			}
		}
	}
	JOINT rThigh
	{
		OFFSET -5.308129 -1.633274 1.361059 
		CHANNELS 3 Xrotation Zrotation Yrotation
		JOINT rShin
		{
			OFFSET 2.041588 -20.007561 0.000000 
			CHANNELS 3 Xrotation Zrotation Yrotation
			JOINT rFoot
			{
				OFFSET 0.000000 -19.190928 -1.224953 
				CHANNELS 3 Xrotation Yrotation Zrotation
				End Site
				{
					OFFSET 0.000000 -2.449906 4.627600 
				}
			}
		}
	}
}
MOTION
Frames: 19
Frame Time: 0.033333
2.432119 45.179592 -9.196807 -2.607707 -4.605184 -27.008329 0.000000 0.000000 0.000000 11.237731 -0.145970 4.804697 -19.625399 -5.206183 12.973806 19.479694 1.429666 8.440214 -3.521967 9.154817 6.304141 -80.233315 -32.092709 -29.521488 -63.488140 -0.947627 37.385830 14.703469 5.515610 -8.960159 3.089181 -14.089146 8.026228 116.408745 13.888653 51.235352 26.116602 -22.525124 88.735809 -24.012775 -18.861982 -7.759441 -19.208267 23.777433 18.352287 54.676987 2.658185 -21.308407 -18.435095 -0.925554 5.175179 0.623892 -19.390858 -15.652442 33.721725 -5.682833 21.332354 -14.478227 2.201230 -12.456009 
2.052539 44.906075 -9.691462 -2.820999 -4.702983 -27.581886 0.000000 0.000000 0.000000 11.938964 0.311506 4.570404 -20.130779 -5.096457 13.216918 19.621929 1.042629 8.673450 -3.521967 9.154817 6.304141 -80.697510 -31.643444 -31.069912 -63.365421 -0.541189 38.076912 14.724500 5.801495 -8.941843 3.089181 -14.089146 8.026228 116.695610 14.635845 51.647255 26.185318 -22.600637 88.257294 -25.142597 -19.772797 -7.529961 -19.782673 24.768896 18.429474 55.688286 2.933838 -21.281351 -18.039541 -0.874257 5.022688 -0.478940 -18.552826 -14.276070 35.656231 -6.337638 19.844097 -17.719978 2.756610 -13.504954 
1.807885 44.834980 -10.039453 -2.944863 -4.909011 -27.433723 0.000000 0.000000 0.000000 12.137002 0.964494 3.955667 -20.627594 -4.963161 13.224081 20.726456 0.917032 8.712157 -3.521967 9.154817 6.304141 -81.824974 -31.293991 -31.403341 -62.796288 0.166883 39.031780 14.790259 6.168919 -8.927696 3.089181 -14.089146 8.026228 116.591873 15.393684 50.736538 26.120710 -22.505671 88.484489 -25.766514 -18.829779 -7.649409 -20.203405 25.249296 18.092377 55.806713 3.277748 -21.495914 -17.249409 -0.823936 4.733154 -1.573586 -17.833986 -13.243550 37.804836 -6.777095 19.333706 -17.600080 2.790745 -13.626833 
1.639685 44.970901 -10.223433 -2.945165 -5.117312 -26.471594 0.000000 0.000000 0.000000 11.636756 2.234362 2.404324 -21.508839 -5.459920 13.548494 22.647032 1.100752 8.605293 -3.521967 9.154817 6.304141 -83.159836 -30.559715 -31.170776 -61.118362 1.200924 38.459877 14.903319 6.141655 -8.937691 3.089181 -14.089146 8.026228 116.420425 16.002708 49.522820 25.989714 -22.580929 89.614372 -24.528360 -17.614447 -7.926112 -20.399693 25.164295 17.503077 54.849392 3.676491 -21.805216 -16.525576 -0.720696 4.430130 -1.290134 -17.220787 -13.470290 38.000767 -6.523630 18.391872 -17.531618 2.712374 -13.403455 
1.524136 45.238583 -10.286567 -3.035421 -5.174933 -25.757887 0.000000 0.000000 0.000000 10.971820 3.221318 1.653270 -20.975872 -5.619551 13.218081 23.447990 0.473503 8.301142 -3.521967 9.154817 6.304141 -84.359512 -30.070587 -29.953146 -59.049881 2.197572 38.332764 14.841460 6.449875 -8.907512 3.089181 -14.089146 8.026228 115.473145 15.861156 48.322281 28.163759 -21.725918 88.477318 -25.189024 -17.751417 -7.860134 -19.717192 24.932194 17.502089 53.010227 3.685349 -22.346022 -16.080910 -0.692160 4.287387 0.155079 -16.939390 -14.477831 36.048080 -5.860024 17.777939 -18.580906 2.887658 -13.637629 
1.457739 45.462864 -10.329079 -2.937086 -5.156126 -25.580345 0.000000 0.000000 0.000000 10.535578 3.522413 2.358067 -20.592384 -5.024141 12.048371 23.910559 -0.329033 7.705174 -3.521967 9.154817 6.304141 -84.851204 -30.060390 -27.806252 -58.462818 2.565758 38.975067 15.485878 6.317039 -8.952685 3.089181 -14.089146 8.026228 112.621696 15.570377 45.429691 34.299503 -18.005854 87.885605 -26.447660 -18.873594 -7.593558 -19.228321 24.979956 17.855551 51.653637 3.519378 -22.892500 -15.277577 -0.583874 3.986699 0.643977 -16.503958 -14.377227 34.915478 -5.744035 17.259972 -18.419592 2.853430 -13.564717 
1.424292 45.624866 -10.352261 -2.702732 -4.873323 -25.372252 0.000000 0.000000 0.000000 9.944117 3.628431 2.818600 -20.788046 -4.711193 11.346882 24.629631 -0.377809 7.255959 -3.521967 9.154817 6.304141 -84.873489 -30.040377 -27.063992 -58.406681 2.579624 39.992786 15.849273 5.340468 -9.043850 3.089181 -14.089146 8.026228 109.167427 15.973301 43.302181 41.584248 -13.238908 87.933907 -26.926830 -19.846977 -7.385401 -19.187601 24.868023 18.009390 50.717369 3.266269 -23.368942 -14.400192 -0.519436 3.618447 0.711043 -16.272358 -14.226145 34.152836 -5.820600 16.863197 -18.516764 2.868944 -13.502412 
1.379809 45.700035 -10.375144 -2.300296 -4.881547 -25.166422 0.000000 0.000000 0.000000 8.935000 3.459557 3.707971 -18.832520 -3.838804 9.885389 23.416149 -1.008629 6.729531 -3.521967 9.154817 6.304141 -84.577187 -30.337149 -25.945591 -58.822655 2.325655 41.566071 15.189650 5.208610 -9.010308 3.089181 -14.089146 8.026228 106.513023 16.516584 40.656013 47.935673 -9.332506 87.353767 -27.836740 -20.043657 -7.278024 -19.227619 25.124205 18.114054 49.944687 3.209250 -24.131376 -14.442656 -0.540315 3.794237 0.750263 -16.010941 -14.445991 33.654789 -5.517859 16.674904 -19.212349 2.960947 -13.664196 
1.371052 45.684673 -10.379924 -2.350649 -4.885098 -24.852808 0.000000 0.000000 0.000000 8.727588 3.546501 3.894367 -17.983870 -3.518356 9.235983 22.757795 -1.523540 6.437675 -3.521967 9.154817 6.304141 -83.974449 -30.261497 -25.716654 -59.608326 2.017411 42.653908 14.607338 5.617544 -8.947988 3.089181 -14.089146 8.026228 103.980072 18.160213 38.595119 54.322227 -5.265229 85.319061 -29.778147 -20.446314 -7.045691 -19.244696 25.108347 18.140528 49.850956 3.248289 -24.539001 -14.442461 -0.557931 3.817860 0.818460 -15.951538 -14.466387 33.899456 -5.547462 16.352554 -19.456205 3.016790 -13.714735 
1.349048 45.585205 -10.323702 -2.859848 -4.884588 -24.176111 0.000000 0.000000 0.000000 9.112823 3.458774 3.904104 -18.868994 -3.233113 8.793302 23.658760 -1.757459 6.135607 -3.521967 9.154817 6.304141 -83.138695 -30.527569 -25.065105 -59.841446 1.907307 43.059521 14.471014 5.662951 -8.943433 3.089181 -14.089146 8.026228 100.963852 19.866535 36.588123 61.816608 -1.198052 81.398247 -31.243505 -21.336422 -6.735942 -19.140341 24.930878 17.992374 50.262264 3.370256 -24.928879 -14.655240 -0.571679 3.889061 1.385843 -16.083181 -14.630496 34.366867 -5.654419 15.829555 -19.966501 3.099836 -13.766138 
1.277374 45.461143 -10.240474 -2.766811 -5.174652 -23.382463 0.000000 0.000000 0.000000 9.410910 4.485198 3.203426 -19.656631 -3.874459 9.288442 23.865364 -1.466114 6.154319 -3.521967 9.154817 6.304141 -82.341286 -29.660845 -25.428301 -60.594711 1.291367 42.160717 14.497355 5.506671 -8.953313 3.089181 -14.089146 8.026228 98.121773 22.720806 35.348022 69.714729 2.784699 76.770187 -33.778503 -22.064457 -6.311505 -19.636923 25.268835 17.736408 50.806152 3.696286 -25.885036 -15.423797 -0.656267 4.290015 1.737108 -15.759456 -14.877150 34.688999 -5.439656 15.275071 -20.675558 3.191701 -13.881907 
1.232279 45.422127 -10.131582 -2.341924 -4.914536 -22.117510 0.000000 0.000000 0.000000 9.092815 5.711236 1.384694 -20.956369 -5.190699 10.766513 24.818684 -0.650111 6.484731 -3.521967 9.154817 6.304141 -82.331062 -27.958017 -26.538139 -60.638950 0.914720 41.240417 14.283512 5.252127 -8.951447 3.089181 -14.089146 8.026228 96.256836 26.517017 35.488499 76.811348 6.143879 73.069847 -36.266247 -23.451744 -5.694429 -20.758795 25.198362 17.359213 51.259499 3.770702 -27.332947 -15.152486 -0.662470 4.240232 1.920580 -15.734225 -15.364221 34.678158 -5.156287 14.318410 -20.778896 3.181843 -13.744539 
1.210580 45.461815 -9.981097 -1.598131 -4.035334 -19.768284 0.000000 0.000000 0.000000 7.321398 4.843166 0.892095 -20.734901 -4.656268 9.915666 25.372488 -0.262192 6.074244 -3.521967 9.154817 6.304141 -83.537842 -27.540045 -22.524353 -59.394756 1.294636 40.111023 13.274844 5.086223 -8.893093 3.089181 -14.089146 8.026228 94.589195 28.505993 31.884319 84.524124 9.076609 69.819969 -37.010864 -25.532217 -5.014606 -22.525873 24.505066 16.705301 51.271473 3.527612 -29.366756 -14.463369 -0.562664 4.012882 2.166249 -15.865944 -16.038239 34.194263 -4.933791 12.504178 -20.228474 2.992053 -13.297844 
1.205340 45.570621 -9.715494 0.291744 -3.204993 -15.161066 0.000000 0.000000 0.000000 3.826146 4.199164 -0.293612 -19.620302 -4.429916 8.795925 25.068903 0.845960 5.313217 -3.521967 9.154817 6.304141 -86.625435 -26.228455 -14.432983 -57.407986 2.112184 36.540741 11.951077 5.271751 -8.821613 3.089181 -14.089146 8.026228 92.665009 29.413116 25.227339 95.286835 12.121559 65.120872 -38.874554 -27.566818 -4.131902 -25.778566 23.628666 15.679116 50.492142 3.206469 -32.778912 -13.690616 -0.540752 3.765884 2.802355 -15.448357 -17.382753 32.528011 -3.861067 9.989513 -19.230242 2.682310 -12.455484 
1.264560 45.664547 -9.246015 2.751090 -3.019549 -7.686666 0.000000 0.000000 0.000000 -0.511943 3.474093 -2.161928 -18.615683 -3.183528 6.347594 25.066092 0.808588 3.984804 -3.521967 9.154817 6.304141 -91.111237 -24.099075 -2.391612 -53.564903 3.581235 34.023205 9.873016 4.424566 -8.685944 3.089181 -14.089146 8.026228 91.221611 29.456474 14.074329 110.007454 15.166187 57.455826 -42.325470 -28.863033 -3.124554 -30.240246 22.202419 14.116104 49.553959 2.678293 -35.128334 -12.728058 -0.410222 3.235921 4.608069 -14.305575 -19.407639 29.811979 -1.839657 6.490121 -17.473530 2.177665 -10.966368 
1.417313 45.610600 -8.481848 4.345099 -3.544252 1.115378 0.000000 0.000000 0.000000 -4.242096 2.487750 -2.560843 -17.292961 -1.249121 2.148778 25.341915 -0.351430 1.572236 -3.521967 9.154817 6.304141 -98.250381 -22.121172 13.045216 -44.463703 8.593220 34.135170 8.195564 2.805795 -8.601035 3.089181 -14.089146 8.026228 92.128006 30.054165 -2.665837 128.314743 16.556631 48.155220 -44.088505 -29.379072 -2.640186 -34.047527 20.307676 12.695990 50.212833 1.636943 -30.781797 -14.295185 -0.393176 2.884094 7.869064 -12.029802 -20.435917 26.391455 -0.101657 1.386301 -15.658879 1.645926 -8.964011 
1.757990 45.435482 -7.502072 5.425300 -4.129095 8.939093 0.000000 0.000000 0.000000 -6.746994 0.947204 0.654530 -17.657028 1.374096 -3.692451 26.921543 -2.137327 -2.032750 -3.521967 9.154817 6.304141 -107.874352 -19.403143 30.636745 -29.222836 17.889561 33.076523 6.243629 2.030766 -8.421440 3.089181 -14.089146 8.026228 96.184151 37.831360 -25.371807 149.032120 15.384507 36.955246 -42.385780 -27.352070 -3.632666 -36.737507 18.476109 12.126260 52.292801 0.007924 -21.750244 -16.986536 -0.316812 2.335665 11.065931 -9.429719 -19.839336 22.988400 0.591128 -3.973662 -13.642673 1.010410 -6.583131 
2.389036 45.064247 -6.280172 5.962170 -4.292520 15.464033 0.000000 0.000000 0.000000 -8.512344 -1.349848 6.056221 -19.822729 3.326307 -10.133960 29.377405 -4.114882 -6.403821 -3.521967 9.154817 6.304141 -111.376045 -12.374814 42.787384 -21.820822 23.118269 30.654337 5.047020 -0.443095 -8.272713 3.089181 -14.089146 8.026228 63.487743 72.485039 -80.225479 169.230942 9.396699 29.470510 -43.183449 -27.854778 -3.306620 -38.157280 16.118578 11.501300 54.664398 -0.940334 -18.247572 -18.497581 -0.227191 1.961527 14.152977 -7.605722 -19.059599 20.677696 0.884198 -8.377167 -11.082305 0.418479 -3.696631 
3.481545 44.332527 -4.770177 6.023869 -3.637416 21.040390 0.000000 0.000000 0.000000 -12.050433 -3.933594 13.948895 -19.547808 4.296621 -15.718636 31.008062 -5.471027 -10.655289 -3.521967 9.154817 6.304141 -108.607094 -3.813117 47.374691 -23.314619 25.263958 34.610374 3.366139 -1.211565 -8.070070 3.089181 -14.089146 8.026228 153.139145 134.304886 -5.450173 178.534927 6.894792 27.740227 -47.380096 -28.134750 -2.581296 -38.250164 12.440698 10.005746 57.992054 -0.512192 -18.857134 -22.291546 -0.602334 3.293448 17.924086 -7.353140 -19.126051 19.785366 0.883244 -9.073516 -9.034849 0.182178 -2.261153 
